<?xml version="1.0" encoding="UTF-8"?>
<svg version="1.1" xmlns="http://www.w3.org/2000/svg" width="512" height="512">
<path d="M0 0 C1.01790619 0.00215515 2.03581238 0.0043103 3.08456421 0.00653076 C17.69363523 0.05620146 32.02575853 0.30709809 46.375 3.3125 C47.34985352 3.51117676 48.32470703 3.70985352 49.32910156 3.91455078 C97.7109774 14.03517194 141.69928269 35.9516877 177.375 70.3125 C178.3640332 71.26068604 178.3640332 71.26068604 179.37304688 72.22802734 C188.86130305 81.37247479 197.6012044 90.66984009 205.375 101.3125 C206.23306152 102.46355017 207.09113451 103.61459177 207.94921875 104.765625 C213.98736829 112.95680614 219.34595521 121.47054105 224.375 130.3125 C224.73948242 130.94430176 225.10396484 131.57610352 225.47949219 132.22705078 C247.08534998 169.97532572 256.85198095 212.74189997 256.6875 255.9375 C256.68534485 256.95540619 256.6831897 257.97331238 256.68096924 259.02206421 C256.63129854 273.63113523 256.38040191 287.96325853 253.375 302.3125 C253.07698486 303.77478027 253.07698486 303.77478027 252.77294922 305.26660156 C242.65232806 353.6484774 220.7358123 397.63678269 186.375 433.3125 C185.74287598 433.97185547 185.11075195 434.63121094 184.45947266 435.31054688 C175.31502521 444.79880305 166.01765991 453.5387044 155.375 461.3125 C154.22394983 462.17056152 153.07290823 463.02863451 151.921875 463.88671875 C143.73224019 469.92427396 135.22961724 475.30707302 126.375 480.3125 C125.66778809 480.7146875 124.96057617 481.116875 124.23193359 481.53125 C101.09654164 494.5566741 75.92537591 503.30551461 49.9375 508.625 C49.21860596 508.77235596 48.49971191 508.91971191 47.7590332 509.0715332 C33.08339502 511.86090125 18.55831162 512.66142619 3.64770508 512.62817383 C0.70811513 512.6250221 -2.2304558 512.64854926 -5.16992188 512.67382812 C-18.54306192 512.71848737 -31.43916711 511.51301542 -44.625 509.3125 C-46.33055054 509.03031616 -46.33055054 509.03031616 -48.07055664 508.74243164 C-91.33802759 500.97044532 -132.38793216 480.98345309 -165.625 452.3125 C-166.37007813 451.67828125 -167.11515625 451.0440625 -167.8828125 450.390625 C-181.38779833 438.57948485 -194.05918743 425.82889772 -204.625 411.3125 C-205.48149066 410.16255169 -206.33826433 409.01281411 -207.1953125 407.86328125 C-213.23534209 399.67315742 -218.61867614 391.16870382 -223.625 382.3125 C-224.0271875 381.60528809 -224.429375 380.89807617 -224.84375 380.16943359 C-237.8691741 357.03404164 -246.61801461 331.86287591 -251.9375 305.875 C-252.08485596 305.15610596 -252.23221191 304.43721191 -252.3840332 303.6965332 C-255.35789088 288.05024391 -255.99800362 272.57681954 -255.9375 256.6875 C-255.93534485 255.66959381 -255.9331897 254.65168762 -255.93096924 253.60293579 C-255.88129854 238.99386477 -255.63040191 224.66174147 -252.625 210.3125 C-252.42632324 209.33764648 -252.22764648 208.36279297 -252.02294922 207.35839844 C-241.90232806 158.9765226 -219.9858123 114.98821731 -185.625 79.3125 C-184.99287598 78.65314453 -184.36075195 77.99378906 -183.70947266 77.31445312 C-174.56502521 67.82619695 -165.26765991 59.0862956 -154.625 51.3125 C-153.47394983 50.45443848 -152.32290823 49.59636549 -151.171875 48.73828125 C-142.98224019 42.70072604 -134.47961724 37.31792698 -125.625 32.3125 C-124.91778809 31.9103125 -124.21057617 31.508125 -123.48193359 31.09375 C-100.34654164 18.0683259 -75.17537591 9.31948539 -49.1875 4 C-48.46860596 3.85264404 -47.74971191 3.70528809 -47.0090332 3.5534668 C-31.36274391 0.57960912 -15.88931954 -0.06050362 0 0 Z M68.625 99.125 C64.58086796 103.05679504 62.82754226 106.55724 62.3125 112.265625 C62.49788598 118.33701571 66.27017473 123.15491348 70.375 127.3125 C73.89378252 130.58147038 77.53917155 133.65450739 81.3125 136.625 C83.375 138.3125 83.375 138.3125 84.375 140.3125 C83.70945602 140.30973462 83.04391205 140.30696924 82.35820007 140.30412006 C66.09615583 140.23760506 49.83415518 140.18809612 33.57200623 140.15706348 C25.70745938 140.14165398 17.84300383 140.120679 9.97851562 140.08618164 C3.1165984 140.05609661 -3.74525264 140.03688212 -10.607234 140.03023452 C-14.23405856 140.02635427 -17.86069391 140.01736191 -21.48745728 139.99530983 C-57.64734758 139.78396152 -86.6549156 147.40499051 -113.375 172.625 C-132.27780373 192.36948702 -143.19518374 218.67485875 -144.0625 245.9375 C-143.88358808 253.02891802 -142.34524936 256.51668816 -137.375 261.625 C-133.11897552 264.23665138 -129.36240874 265.67439472 -124.3203125 265.0078125 C-118.44542044 263.40556921 -114.88020008 260.42781441 -111.625 255.3125 C-110.77479566 252.76188698 -110.43061773 250.9498874 -110.23046875 248.3203125 C-108.64973889 229.63107347 -103.88332576 213.89375051 -91.625 199.3125 C-90.696875 198.08466797 -90.696875 198.08466797 -89.75 196.83203125 C-79.20625037 184.33071045 -61.61242884 176.44058259 -45.625 174.3125 C-36.41903283 173.66532613 -27.17663056 173.83035699 -17.95384407 173.90692425 C-14.38116698 173.93223791 -10.80847072 173.93430314 -7.23571777 173.93902588 C-0.49646505 173.95136894 6.24252251 173.98407055 12.98165941 174.02442384 C20.66503884 174.06941467 28.34843215 174.09119663 36.0319109 174.11120558 C51.8130932 174.15281298 67.59401216 174.22299261 83.375 174.3125 C82.25690089 175.43747925 81.13781427 176.5614771 80.01831055 177.68505859 C79.39522507 178.31108978 78.77213959 178.93712097 78.13017273 179.5821228 C76.22224379 181.4630982 74.24163496 183.2179561 72.1875 184.9375 C67.78797141 188.74985746 63.85575112 192.52410925 62.375 198.3125 C62.375 203.30664186 63.24640374 207.3208427 66.375 211.3125 C71.06978004 215.85293111 74.57894116 217.3785256 81.14453125 217.640625 C87.74193736 216.67007839 92.05371568 212.12234563 96.625 207.6875 C97.95899699 206.41729792 99.2936326 205.1477662 100.62890625 203.87890625 C101.27230957 203.26418457 101.91571289 202.64946289 102.57861328 202.01611328 C104.86954117 199.84349915 107.20762096 197.7279795 109.5625 195.625 C113.70828121 191.91923537 117.81393978 188.17152194 121.90380859 184.40429688 C125.13024866 181.43692923 128.39925777 178.52404208 131.6875 175.625 C140.72680068 167.85141005 140.72680068 167.85141005 144.6875 157.125 C143.99870721 148.72172797 139.22791253 143.62763449 133.125 138.25 C132.44969238 137.63785645 131.77438477 137.02571289 131.07861328 136.39501953 C129.18875154 134.68753287 127.28594966 132.99631532 125.375 131.3125 C124.23417969 130.30509766 124.23417969 130.30509766 123.0703125 129.27734375 C121.86552462 128.22509339 120.65722907 127.17684452 119.4453125 126.1328125 C116.62857707 123.65621116 113.87781142 121.10956108 111.125 118.5625 C110.57030029 118.05050049 110.01560059 117.53850098 109.4440918 117.01098633 C106.66661699 114.44454023 103.90029312 111.86757716 101.15234375 109.26953125 C86.75948488 95.33934466 86.75948488 95.33934466 68.625 99.125 Z M118.375 250.3125 C113.81537675 254.36655833 111.44763583 258.16700525 110.98046875 264.3046875 C109.39973889 282.99392653 104.63332576 298.73124949 92.375 313.3125 C91.446875 314.54033203 91.446875 314.54033203 90.5 315.79296875 C79.52295023 328.80803695 61.77371176 335.86864648 45.375 338.3125 C43.51614462 338.39605944 41.65482952 338.43458235 39.7940979 338.43275452 C38.7088382 338.43412918 37.62357849 338.43550385 36.50543213 338.43692017 C35.33010925 338.43332489 34.15478638 338.42972961 32.94384766 338.42602539 C31.69451447 338.42617142 30.44518127 338.42631744 29.1579895 338.4264679 C25.74520658 338.42589196 22.33248467 338.42088797 18.91971254 338.41389394 C15.34828148 338.40762876 11.77684953 338.4070541 8.20541382 338.40586853 C1.44823928 338.40276453 -5.30891901 338.39456372 -12.06608641 338.38451904 C-19.76136105 338.37332895 -27.45663647 338.36784016 -35.15191722 338.36282361 C-50.97628754 338.35238031 -66.80064167 338.33479894 -82.625 338.3125 C-81.50690089 337.18752075 -80.38781427 336.0635229 -79.26831055 334.93994141 C-78.64522507 334.31391022 -78.02213959 333.68787903 -77.38017273 333.0428772 C-75.47224379 331.1619018 -73.49163496 329.4070439 -71.4375 327.6875 C-66.58903579 323.47674482 -63.04171986 319.75213571 -61.625 313.3125 C-61.91526945 307.79738053 -63.03014315 303.82915569 -67.05078125 299.9296875 C-71.49370803 296.07106622 -74.57256106 295.21678898 -80.39453125 294.984375 C-86.99193736 295.95492161 -91.30371568 300.50265437 -95.875 304.9375 C-97.20899699 306.20770208 -98.5436326 307.4772338 -99.87890625 308.74609375 C-100.84401123 309.66817627 -100.84401123 309.66817627 -101.82861328 310.60888672 C-104.11954117 312.78150085 -106.45762096 314.8970205 -108.8125 317 C-112.95828121 320.70576463 -117.06393978 324.45347806 -121.15380859 328.22070312 C-124.38024866 331.18807077 -127.64925777 334.10095792 -130.9375 337 C-139.97680068 344.77358995 -139.97680068 344.77358995 -143.9375 355.5 C-143.24870721 363.90327203 -138.47791253 368.99736551 -132.375 374.375 C-131.69969238 374.98714355 -131.02438477 375.59928711 -130.32861328 376.22998047 C-128.43875154 377.93746713 -126.53594966 379.62868468 -124.625 381.3125 C-123.48417969 382.31990234 -123.48417969 382.31990234 -122.3203125 383.34765625 C-121.11552462 384.39990661 -119.90722907 385.44815548 -118.6953125 386.4921875 C-115.87857707 388.96878884 -113.12781142 391.51543892 -110.375 394.0625 C-109.82030029 394.57449951 -109.26560059 395.08649902 -108.6940918 395.61401367 C-105.91661699 398.18045977 -103.15029312 400.75742284 -100.40234375 403.35546875 C-90.51013337 413.28187586 -90.51013337 413.28187586 -77.625 417.3125 C-71.5099739 416.13240724 -67.69701447 413.97651861 -63.875 409.0625 C-61.5132903 403.86673866 -61.19207231 399.95898878 -62.6171875 394.5390625 C-64.69072979 389.32248578 -68.47834828 386.13385405 -72.625 382.5 C-74.06253918 381.20186631 -75.50004063 379.90369082 -76.9375 378.60546875 C-77.57300781 378.0436792 -78.20851563 377.48188965 -78.86328125 376.90307617 C-80.50585848 375.42006749 -82.06662186 373.88287119 -83.625 372.3125 C-82.95945602 372.31526538 -82.29391205 372.31803076 -81.60820007 372.32087994 C-65.34615583 372.38739494 -49.08415518 372.43690388 -32.82200623 372.46793652 C-24.95745938 372.48334602 -17.09300383 372.504321 -9.22851562 372.53881836 C-2.3665984 372.56890339 4.49525264 372.58811788 11.357234 372.59476548 C14.98405856 372.59864573 18.61069391 372.60763809 22.23745728 372.62969017 C58.39734758 372.84103848 87.4049156 365.22000949 114.125 340 C133.02780373 320.25551298 143.94518374 293.95014125 144.8125 266.6875 C144.63358808 259.59608198 143.09524936 256.10831184 138.125 251 C131.38521788 246.86422461 125.40332308 246.35744734 118.375 250.3125 Z " fill="#000000" transform="translate(255.625,-0.3125)"/>
</svg>
